<svg xmlns="http://www.w3.org/2000/svg" viewBox="0 0 68.22 68.24"><defs><style>.cls-1{fill:#213855;}</style></defs><title>docs</title><g id="Layer_2" data-name="Layer 2"><g id="Capa_1" data-name="Capa 1"><path class="cls-1" d="M68.22,67.41V30.9a.82.82,0,1,0-1.64,0V66.58H1.65V23.13h33.2l4,4a.85.85,0,0,0,.63.29h22.8V63.11a.83.83,0,0,0,1.65.06V26.6a.83.83,0,0,0-.83-.82H39.82l-4.06-4.06a.83.83,0,0,0-.58-.24H.82A.82.82,0,0,0,0,22.3V67.41a.83.83,0,0,0,.82.83H67.4A.83.83,0,0,0,68.22,67.41Z"/><path class="cls-1" d="M43.78,23.13a.83.83,0,0,0,.82-.83V.85A.83.83,0,0,0,43.78,0H3a.83.83,0,0,0-.85.82V18A.83.83,0,1,0,3.8,18V1.65H43V22.3A.83.83,0,0,0,43.78,23.13Z"/><path class="cls-1" d="M35.19,6.45H11.56a.82.82,0,0,0,0,1.64H35.19a.82.82,0,1,0,0-1.64Z"/><path class="cls-1" d="M61,23.13a.83.83,0,0,0,.82-.83V7.3A.83.83,0,0,0,61,6.45h-4.3a.82.82,0,1,0,0,1.64h3.47V22.3A.83.83,0,0,0,61,23.13Z"/><path class="cls-1" d="M35.19,15H11.56a.83.83,0,0,0,0,1.65H35.19a.83.83,0,0,0,0-1.65Z"/><path class="cls-1" d="M52.37,23.12a.82.82,0,0,0,.82-.82V5.15a.83.83,0,0,0-.82-.85h-4.3a.83.83,0,1,0,0,1.65h3.47V22.3A.83.83,0,0,0,52.37,23.12Z"/></g></g></svg>