<svg xmlns="http://www.w3.org/2000/svg" viewBox="0 0 68.1 68.11"><defs><style>.cls-1{fill:#213855;}</style></defs><title>map</title><g id="Layer_2" data-name="Layer 2"><g id="Capa_1" data-name="Capa 1"><path class="cls-1" d="M68.1,54.43V13.69a.83.83,0,0,0-.12-.44.85.85,0,0,0-.51-.36.8.8,0,0,0-.62.1L49.69,23.71a.82.82,0,0,0-.26,1.13.78.78,0,0,0,.51.37.85.85,0,0,0,.62-.1l15.89-9.94V54L48.8,65.75v-37a.82.82,0,1,0-1.63,0V66L20.92,53.9V28.69a.82.82,0,0,0-1.64,0V54L1.64,65.75V27.3l14.59-8.62a.83.83,0,0,0,.38-.5.84.84,0,0,0-.09-.62.82.82,0,0,0-1.12-.29L.72,26h0l-.3.18a.81.81,0,0,0-.4.7L0,67.19a.86.86,0,0,0,.14.55.79.79,0,0,0,.52.35A.86.86,0,0,0,1.28,68L20.19,55.36,47.66,68a.93.93,0,0,0,.3.06h0a.67.67,0,0,0,.28-.06l.09,0,.06,0L67.66,55.16A.87.87,0,0,0,68.1,54.43Z"/><path class="cls-1" d="M44.62,4.5l-.16-.19A14.76,14.76,0,0,0,19.28,14.76c0,3.59,1.78,8.21,5.28,13.75a122,122,0,0,0,8.79,11.82l0,0a.8.8,0,0,0,.15.17.82.82,0,0,0,.6.18.81.81,0,0,0,.56-.29,122.34,122.34,0,0,0,8.85-11.9C47,23,48.8,18.35,48.8,14.76A14.61,14.61,0,0,0,44.64,4.49ZM42.14,27.64a114.12,114.12,0,0,1-7.9,10.71l-.2.24-.19-.24A112.87,112.87,0,0,1,26,27.64c-3.33-5.27-5-9.6-5-12.88A13.12,13.12,0,0,1,43.32,5.48l.43.43h0a13,13,0,0,1,3.43,8.85C47.16,18,45.47,22.38,42.14,27.64Z"/><path class="cls-1" d="M29.67,19.13a6.18,6.18,0,1,0,8.75-8.74l-.08-.07a6.08,6.08,0,0,0-4.29-1.74,6.16,6.16,0,0,0-4.32,1.75l-.06.06a6.18,6.18,0,0,0,0,8.74Zm1.16-7.58.18-.18h0a4.52,4.52,0,0,1,6.05,0h0l.18.17A4.54,4.54,0,0,1,34,19.3a4.54,4.54,0,0,1-4.53-4.54A4.54,4.54,0,0,1,30.83,11.55Z"/></g></g></svg>