<svg xmlns="http://www.w3.org/2000/svg" viewBox="0 0 68.91 68.9"><defs><style>.cls-1{fill:#0d2746;}</style></defs><title>pencil</title><g id="Layer_2" data-name="Layer 2"><g id="Capa_1" data-name="Capa 1"><path class="cls-1" d="M44.18,24.08a.83.83,0,0,0,.83-.83.84.84,0,0,0-.83-.84H.83a.84.84,0,0,0-.83.84v5.6a.83.83,0,0,0,.25.59.83.83,0,0,0,.58.24H42.68a.83.83,0,0,0,.83-.83.84.84,0,0,0-.83-.84h-41V24.08Z"/><polygon class="cls-1" points="0.83 29.93 0.83 29.93 0.83 29.93 0.83 29.93"/><path class="cls-1" d="M68.91,28.85v-5.6a.85.85,0,0,0-.84-.84h-6a.85.85,0,0,0-.84.84.84.84,0,0,0,.84.83h5.17V28H60.56a.84.84,0,0,0-.05,1.67h7.56A.84.84,0,0,0,68.91,28.85Z"/><path class="cls-1" d="M63.51,18.53,67.05,5.34A.86.86,0,0,0,67,4.71a.81.81,0,0,0-.5-.39.84.84,0,0,0-.64.08.9.9,0,0,0-.39.51L65,6.58l-3-.81.82-3.06a.89.89,0,0,0-.09-.64.85.85,0,0,0-.5-.39L56,0a.84.84,0,0,0-.64.08A.79.79,0,0,0,55,.62l-11.52,43a.69.69,0,0,0,0,.28l.76,9.35-.63,2.34a.87.87,0,0,0,.09.63.84.84,0,0,0,.51.39.87.87,0,0,0,.63-.09.85.85,0,0,0,.39-.5l.65-2.39L51.11,46a.94.94,0,0,0,.15-.3l.08-.3h0l9.37-35a.83.83,0,0,0-.59-1L54.74,8l1.64-6.12L61,3.08l-.82,3.06a.83.83,0,0,0,.23.82.92.92,0,0,0,.36.2l3.84,1L61.9,18.1a.83.83,0,0,0,.59,1A.84.84,0,0,0,63.51,18.53ZM45.68,50.92l-.54-6.66.17-.07a3.47,3.47,0,0,1,2.21-.13,3.41,3.41,0,0,1,1.85,1.22l.11.15Zm13.2-40.11-.07.24L50.1,43.6l-.3-.23a5.22,5.22,0,0,0-3.91-1l-.37,0L54.3,9.58Z"/><path class="cls-1" d="M38.65,55.4H9.24a.84.84,0,0,0-.84.83.85.85,0,0,0,.84.84H38.65a.85.85,0,0,0,.84-.84A.84.84,0,0,0,38.65,55.4Z"/><path class="cls-1" d="M59.67,41.39H57a.83.83,0,0,0-.83.83.84.84,0,0,0,.83.84h2.7a.84.84,0,0,0,.83-.84A.83.83,0,0,0,59.67,41.39Z"/><path class="cls-1" d="M39.09,41.39H9.24a.84.84,0,0,0-.84.83.85.85,0,0,0,.84.84H39.09a.85.85,0,0,0,.84-.84A.84.84,0,0,0,39.09,41.39Z"/><path class="cls-1" d="M59.67,35.79H58.48a.84.84,0,0,0-.84.83.85.85,0,0,0,.84.84h1.19a.84.84,0,0,0,.83-.84A.83.83,0,0,0,59.67,35.79Z"/><path class="cls-1" d="M40.59,35.79H9.24a.84.84,0,0,0-.84.83.85.85,0,0,0,.84.84H40.59a.85.85,0,0,0,.84-.84A.84.84,0,0,0,40.59,35.79Z"/><path class="cls-1" d="M.83,33.62a.83.83,0,0,0-.83.83V65.27a3.59,3.59,0,0,0,1.07,2.56l.07.07a3.6,3.6,0,0,0,2.5,1H65.27a3.65,3.65,0,0,0,3.63-3.63V34.45a.83.83,0,0,0-.83-.83.84.84,0,0,0-.84.83V65.27a1.95,1.95,0,0,1-2,2H3.63a1.92,1.92,0,0,1-1.33-.52l-.06-.07a1.94,1.94,0,0,1-.57-1.37V34.45A.84.84,0,0,0,.83,33.62Z"/><path class="cls-1" d="M59.67,47H55.83a.84.84,0,0,0-.83.84.83.83,0,0,0,.83.83h3.84a.83.83,0,0,0,.83-.83A.84.84,0,0,0,59.67,47Z"/><path class="cls-1" d="M39,47H9.24a.85.85,0,0,0-.84.84.84.84,0,0,0,.84.83H39a.84.84,0,0,0,.84-.83A.85.85,0,0,0,39,47Z"/></g></g></svg>