<svg xmlns="http://www.w3.org/2000/svg" viewBox="0 0 53.99 66.68"><defs><style>.cls-1{fill:#213855;}</style></defs><title>percentage</title><g id="Layer_2" data-name="Layer 2"><g id="Capa_1" data-name="Capa 1"><path class="cls-1" d="M4.65,66.55a.75.75,0,0,0,.6.11.74.74,0,0,0,.5-.34L48.2,1.23A.79.79,0,0,0,48,.13.75.75,0,0,0,47.54,0l-.17,0a.77.77,0,0,0-.5.34h0L4.42,65.45a.75.75,0,0,0-.11.6A.74.74,0,0,0,4.65,66.55Z"/><path class="cls-1" d="M12.34,26.79h0a12.26,12.26,0,0,0,8.73-3.61l.05-.06a12.34,12.34,0,0,0-.06-17.4L21,5.64a12.34,12.34,0,0,0-17.31,0l-.07.08a12.31,12.31,0,0,0,0,17.44l-.18.18h0l.18-.17A12.27,12.27,0,0,0,12.34,26.79ZM1.6,14.45A10.74,10.74,0,0,1,19.77,6.68L20,6.42v.5A10.77,10.77,0,0,1,20,22l-.07.06A10.75,10.75,0,0,1,1.6,14.45Z"/><path class="cls-1" d="M6.05,15.25a.8.8,0,0,0,.8-.8A5.47,5.47,0,0,1,8.42,10.6l0,0A5.46,5.46,0,0,1,12.35,9a.8.8,0,0,0,0-1.6,7,7,0,0,0-5,2.08l-.14.15h0a7,7,0,0,0-1.93,4.87A.8.8,0,0,0,6.05,15.25Z"/><path class="cls-1" d="M50.37,43.52l-.16-.16h0A12.34,12.34,0,0,0,32.92,61l.23.23h0A12.35,12.35,0,0,0,50.37,43.52ZM49.24,59.84a10.75,10.75,0,0,1-15,.18h0L34,59.85a10.75,10.75,0,0,1,15-15.38h0l.18.18a10.73,10.73,0,0,1,0,15.19Z"/><path class="cls-1" d="M41.64,45.15a7,7,0,0,0-5,2.08l-.15.14a7.06,7.06,0,0,0-1.94,4.88.8.8,0,0,0,1.6,0,5.5,5.5,0,0,1,1.61-3.89h0a5.46,5.46,0,0,1,3.88-1.61.8.8,0,1,0,0-1.6Z"/></g></g></svg>