<svg xmlns="http://www.w3.org/2000/svg" viewBox="0 0 64.74 64.79"><defs><style>.cls-1{fill:#213855;}</style></defs><title>phone</title><g id="Layer_2" data-name="Layer 2"><g id="Capa_1" data-name="Capa 1"><path class="cls-1" d="M46.32,25.93a.73.73,0,0,0,0-.58,12.83,12.83,0,0,0-1.18-2.19,13.81,13.81,0,0,0-1.59-1.93L43.22,21l.07,0a12.2,12.2,0,0,0-1.69-1.35,12.81,12.81,0,0,0-2.19-1.19.78.78,0,0,0-.58,0,.79.79,0,0,0-.42.42.77.77,0,0,0,.41,1h0a10.9,10.9,0,0,1,1.92,1.05,11.14,11.14,0,0,1,1.53,1.23h0l.18.17A12,12,0,0,1,43.85,24a11.29,11.29,0,0,1,1,1.93.77.77,0,0,0,1,.4A.74.74,0,0,0,46.32,25.93Z"/><path class="cls-1" d="M38.37,12.52a.78.78,0,0,0,.55,1,17.13,17.13,0,0,1,4.2,1.75A17.46,17.46,0,0,1,46.75,18a18,18,0,0,1,2.79,3.63,17.46,17.46,0,0,1,1.76,4.21.77.77,0,0,0,.94.54A.72.72,0,0,0,52.7,26a.69.69,0,0,0,.08-.58,19.23,19.23,0,0,0-4.94-8.53,19.74,19.74,0,0,0-4-3A19.07,19.07,0,0,0,39.31,12a.64.64,0,0,0-.2,0A.77.77,0,0,0,38.37,12.52Z"/><path class="cls-1" d="M56.52,18.51A25.25,25.25,0,0,0,39.26,5.71h-.15A.77.77,0,0,0,39,7.22h0A23.75,23.75,0,0,1,51.05,13.7a23.51,23.51,0,0,1,6.49,12.09.77.77,0,0,0,1.39.29.75.75,0,0,0,.12-.58,24.65,24.65,0,0,0-2.5-6.94Z"/><path class="cls-1" d="M64.43,53.31h0L47.82,41.14a.76.76,0,0,0-1,.08l-.15.14h0l-3.15,3.15c-2.91,2.91-7.65,2.7-13-.56a30.22,30.22,0,0,1-9.72-9.72c-3.27-5.37-3.49-10.1-.6-13l3.33-3.32a.78.78,0,0,0,0-1.05L11.43.31A.77.77,0,0,0,10.36.15a.31.31,0,0,0-.09.07L4.33,6.12h0c-4.33,4.44-5.4,10.14-3.23,17S8.78,37.89,17.43,46.6l.55.51,0,0,1.29,1.26C27.67,56.56,35.33,61.74,42,63.79s12.31.93,16.59-3.35l.18-.19,1.31-1.35s0,0,0,0l.09-.14a.49.49,0,0,0,.06-.13.57.57,0,0,0,0-.15.62.62,0,0,0,0-.13,1.24,1.24,0,0,0,0-.16.5.5,0,0,0,0-.13l-.09-.13-.05-.07c-.08-.06-.1-.08-.11-.1l-12.43-9.1a.73.73,0,0,0-.57-.14.77.77,0,0,0-.5.3.78.78,0,0,0-.14.57.77.77,0,0,0,.3.51l11.75,8.6-.87.9c-3.85,3.84-8.91,4.84-15.06,3-6.44-2-13.89-7-22.13-15L19,46h0l-.51-.51C10,37,4.67,29.28,2.55,22.63c-2-6.24-1-11.41,2.82-15.38h0l.9-.9,8.61,11.76a.77.77,0,0,0,.51.3.74.74,0,0,0,.57-.14.77.77,0,0,0,.3-.5.78.78,0,0,0-.14-.57L7.37,5.26l3.35-3.32L22,17.29l-2.86,2.86C15.68,23.58,15.82,29,19.49,35A31.08,31.08,0,0,0,24,40.73a30.87,30.87,0,0,0,5.71,4.53c6,3.66,11.45,3.78,14.9.34l2.83-2.83L63.52,54.55a.78.78,0,0,0,1.08-.17A.77.77,0,0,0,64.43,53.31Z"/></g></g></svg>