<svg version="1" xmlns="http://www.w3.org/2000/svg" width="933.333" height="933.333" viewBox="0 0 700.000000 700.000000"><path d="M2.6 3c-.1.3-.2 156.9-.2 348l.1 347.5h696V2.5H350.7c-191.3 0-348 .2-348.1.5zM675 350.5V675H26V26h649v324.5z"/><path d="M210.9 165.3c0 1.2 0 85.4-.1 187.2v185l39.1.1 39.1.1V404.4h30.3c29.2 0 56.2-.9 58.9-1.9.7-.3 4.2-.9 7.8-1.4 7.4-1.1 8.1-1.3 16.8-3.5 34.2-8.9 60.1-28.2 74-55.1 9-17.4 12.9-35 13-59.5.4-67.2-34.1-105.9-104.4-117-13.4-2.1-17.2-2.2-95.6-2.6l-78.8-.3-.1 2.2zM344 229.4c17.6.8 21.3 1.2 31.4 3.7 26.5 6.7 37.4 22.1 36.8 52.1-.4 22.5-8.6 37.8-24.4 45.5-10.4 5.1-22.1 7.6-41.3 8.9-6.9.4-52.3.9-56.2.5-1-.1-1.3-11.9-1.3-55.5v-55.5l3.3-.3c4.6-.4 34.7-.1 51.7.6z"/></svg>