<svg xmlns="http://www.w3.org/2000/svg" viewBox="0 0 19.38 21.34"><title>bag</title><g id="Layer_2" data-name="Layer 2"><g id="Capa_1" data-name="Capa 1"><path d="M19.38,20.8,17.78,6a.48.48,0,0,0-.48-.42h-3V4.62a4.62,4.62,0,1,0-9.24,0v.91h-3A.49.49,0,0,0,1.6,6L0,20.8a.47.47,0,0,0,.1.38.46.46,0,0,0,.35.16H18.92a.45.45,0,0,0,.35-.16A.52.52,0,0,0,19.38,20.8ZM13.88,8.21a.43.43,0,0,1,0,.85.43.43,0,1,1,0-.85ZM6.06,4.62a3.67,3.67,0,0,1,7.34,0v.91H6.06ZM5.59,8.21a.43.43,0,0,1,0,.85.43.43,0,1,1,0-.85ZM1,20.35,2.5,6.46H5.11v.87a1.35,1.35,0,1,0,.9,0V6.46h7.33v.87a1.36,1.36,0,1,0,.91,0V6.46H17l1.49,13.89Z"/></g></g></svg>