<svg xmlns="http://www.w3.org/2000/svg" viewBox="0 0 22.17 22.16"><title>ball</title><g id="Layer_2" data-name="Layer 2"><g id="Capa_1" data-name="Capa 1"><path d="M17.74,2.21A11.11,11.11,0,0,0,13.62.29h0A11,11,0,0,0,4.75,2L4.69,2a11.08,11.08,0,0,0,2.44,19.4h0a11.07,11.07,0,0,0,12.74-3.66l0-.05A11.09,11.09,0,0,0,17.74,2.21Zm3.3,7a10.21,10.21,0,0,0-3,.45,3.17,3.17,0,0,0-1.36-1.4,8.75,8.75,0,0,0-1.25-6.31A10.16,10.16,0,0,1,21,9.17Zm-3.61,1.91a2.27,2.27,0,0,1-.66,1.6,2.24,2.24,0,0,1-1.6.67,2.27,2.27,0,1,1,2.26-2.27Zm-4.1-9.9v0c2.75,1.91,2.59,5.43,2.42,6.69A3.22,3.22,0,0,0,14.18,8c-.59-1.2-2.6-4.35-8-5.81A10.09,10.09,0,0,1,13.33,1.18ZM5.1,2.92h0c5.7,1.27,7.69,4.46,8.21,5.53a3.73,3.73,0,0,0-.43.36,3.21,3.21,0,0,0-.65,3.61c-.78.76-3.87,3.19-10.49,2.6A10.12,10.12,0,0,1,5.1,2.92ZM2.25,16c.53,0,1,.06,1.53.06,5.32,0,8-1.95,9-2.84l.12.13a3.24,3.24,0,0,0,1.29.79C13.83,15.39,12.4,19,7.34,20.5A10.21,10.21,0,0,1,2.25,16Zm8.84,5.2A10.26,10.26,0,0,1,8.88,21a10,10,0,0,0,6.25-6.67h0a3.14,3.14,0,0,0,2.09-.77,5.88,5.88,0,0,1,1.81,3.77A10.11,10.11,0,0,1,11.09,21.22Zm8.75-5a6.65,6.65,0,0,0-1.95-3.38,3.22,3.22,0,0,0,.5-1.73,3.79,3.79,0,0,0-.05-.58,9.54,9.54,0,0,1,2.86-.39c0,.32.05.64.05,1A10,10,0,0,1,19.84,16.19Z"/></g></g></svg>