<svg xmlns="http://www.w3.org/2000/svg" viewBox="0 0 27.12 18.34"><title>book</title><g id="Layer_2" data-name="Layer 2"><g id="Capa_1" data-name="Capa 1"><path d="M26.92,3.37c-.05,0-6.39-5-13.35-.22a11.65,11.65,0,0,0-1.89-1V.5a.5.5,0,0,0-.51-.5H8a.5.5,0,0,0-.5.5v.58A11.19,11.19,0,0,0,.21,3.35.52.52,0,0,0,0,3.76v14a.5.5,0,0,0,.5.5.53.53,0,0,0,.3-.09,10.29,10.29,0,0,1,12.45,0h0l.05,0a.45.45,0,0,0,.2,0h.23l0,0h0a10.29,10.29,0,0,1,12.45,0,.52.52,0,0,0,.71-.08.51.51,0,0,0,.11-.31V3.76A.53.53,0,0,0,26.92,3.37ZM10.67,1V6.22L10,5.46a.5.5,0,0,0-.71,0l0,0-.71.76V1Zm2.39,15.84A11.34,11.34,0,0,0,1,16.83V4A10.14,10.14,0,0,1,7.5,2.09V7.5A.5.5,0,0,0,8,8a.52.52,0,0,0,.37-.16L9.58,6.53l1.23,1.32a.5.5,0,0,0,.87-.34V3.21a10.54,10.54,0,0,1,1.38.8Zm13.06,0A12.24,12.24,0,0,0,20,15.08a11,11,0,0,0-5.91,1.75V4A10.3,10.3,0,0,1,26.12,4Z"/></g></g></svg>