<svg xmlns="http://www.w3.org/2000/svg" viewBox="0 0 22 22"><title>Asset 2</title><g id="Layer_2" data-name="Layer 2"><g id="Capa_1" data-name="Capa 1"><path d="M7.6,22h6.8a1.19,1.19,0,0,0,1.17-1.18V15.57h5.25A1.19,1.19,0,0,0,22,14.4V7.6a1.19,1.19,0,0,0-1.14-1.18H15.61V1.17A1.18,1.18,0,0,0,14.44,0H7.6A1.19,1.19,0,0,0,6.42,1.17V6.42H1.17A1.19,1.19,0,0,0,0,7.6v6.8a1.18,1.18,0,0,0,1.17,1.17H6.42v5.25A1.2,1.2,0,0,0,7.6,22ZM1.19,14.36V7.64H7A.61.61,0,0,0,7.64,7V1.19h6.72V7a.61.61,0,0,0,.61.61h5.85v6.72H15a.62.62,0,0,0-.61.61v5.85H7.64V15A.61.61,0,0,0,7,14.36Z"/></g></g></svg>