<svg xmlns="http://www.w3.org/2000/svg" viewBox="0 0 8.89 21.62"><title>glass</title><g id="Layer_2" data-name="Layer 2"><g id="Capa_1" data-name="Capa 1"><path d="M8.86,7.57,8.29.34A.36.36,0,0,0,7.94,0H1A.35.35,0,0,0,.62.34L0,7.57A6.39,6.39,0,0,0,1.27,12.1a3.74,3.74,0,0,0,2.07,1.17v5.25c-1,.25-1.63.81-1.63,1.49,0,.92,1.17,1.61,2.73,1.61S7.16,20.93,7.16,20c0-.68-.63-1.24-1.63-1.49V13.27A3.59,3.59,0,0,0,7.62,12.1,6.43,6.43,0,0,0,8.86,7.57ZM6.43,20c0,.41-.86.88-2,.88s-2-.47-2-.88.46-.68,1.32-.82a.38.38,0,0,0,.32-.36V13.4l.38,0a2.06,2.06,0,0,0,.35,0v5.43a.37.37,0,0,0,.3.36C6,19.33,6.43,19.73,6.43,20Zm.67-8.37a3.4,3.4,0,0,1-2.64,1,3.47,3.47,0,0,1-2.65-1c-1.3-1.45-1-3.94-1-4L1.31.75H7.6l.55,6.92A5.88,5.88,0,0,1,7.1,11.64Z"/><path d="M6.45,8,6.33,6.25a.24.24,0,0,0-.12-.19.24.24,0,0,0-.22,0,1.81,1.81,0,0,1-.78.16,6.11,6.11,0,0,1-1.06-.13A2.85,2.85,0,0,0,3.63,6a2.71,2.71,0,0,0-.94.17.22.22,0,0,0-.15.2L2.42,8A3,3,0,0,0,3,10a1.84,1.84,0,0,0,1.46.59A1.9,1.9,0,0,0,5.89,10,2.83,2.83,0,0,0,6.45,8Zm-.9,1.76a1.38,1.38,0,0,1-1.1.44,1.39,1.39,0,0,1-1.1-.44A2.52,2.52,0,0,1,2.9,8.05L3,6.61a2.09,2.09,0,0,1,.62-.1,3,3,0,0,1,.43,0A6.48,6.48,0,0,0,5.2,6.7a2,2,0,0,0,.65-.09L6,8.05A2.16,2.16,0,0,1,5.55,9.74Z"/><polygon points="2.57 8.27 2.78 6.62 2.89 6.31 3.69 6.22 4.69 6.34 5.3 6.51 5.92 6.22 6.07 6.37 6.32 8.35 5.89 9.65 4.92 10.43 3.7 10.43 2.89 9.75 2.57 8.54 2.57 8.27"/></g></g></svg>