<svg xmlns="http://www.w3.org/2000/svg" viewBox="0 0 21.77 21.76"><title>gym</title><g id="Layer_2" data-name="Layer 2"><g id="Capa_1" data-name="Capa 1"><path d="M21.22,7.09a1.88,1.88,0,0,0,0-2.65L20.79,4A2.17,2.17,0,0,0,19,.59,2.26,2.26,0,0,0,17.78,1L17.35.55a1.88,1.88,0,0,0-2.66,0,1.9,1.9,0,0,0-.54,1.18,2.48,2.48,0,0,0-1.07-.26,2.3,2.3,0,0,0-1.66.69,2.33,2.33,0,0,0-.69,1.66,2.3,2.3,0,0,0,.69,1.66l1.3,1.31-5.9,5.88-1.31-1.3a2.29,2.29,0,0,0-1.66-.69,2.26,2.26,0,0,0-1.66.69,2.34,2.34,0,0,0-.43,2.72,1.88,1.88,0,0,0-1.21.55,1.91,1.91,0,0,0,0,2.68l.45.43A2,2,0,0,0,.62,19a2.25,2.25,0,0,0,.64,1.54,2.16,2.16,0,0,0,1.55.64A2.34,2.34,0,0,0,4,20.78l.43.43a1.87,1.87,0,0,0,2.65,0A1.93,1.93,0,0,0,7.67,20a2.45,2.45,0,0,0,1.07.26,2.35,2.35,0,0,0,1.66-4L9.09,15,15,9.09l1.3,1.3a2.35,2.35,0,0,0,1.66.69,2.3,2.3,0,0,0,1.66-.69A2.37,2.37,0,0,0,20,7.52h.14A1.43,1.43,0,0,0,21.22,7.09ZM20,1.78a1.4,1.4,0,0,1,.24,1.66L18.35,1.57A1.32,1.32,0,0,1,20,1.78ZM1.81,20a1.41,1.41,0,0,1-.24-1.66l1.88,1.88A1.33,1.33,0,0,1,1.81,20Zm4.74.69a1.1,1.1,0,0,1-1.56,0L1.12,16.77a1.1,1.1,0,0,1,0-1.56,1.12,1.12,0,0,1,.78-.33,1.15,1.15,0,0,1,.79.33l3.86,3.87A1.1,1.1,0,0,1,6.55,20.64ZM9.83,16.8a1.57,1.57,0,0,1,0,2.23,1.52,1.52,0,0,1-1.12.45A1.65,1.65,0,0,1,7.6,19L2.73,14.16a1.63,1.63,0,0,1,0-2.23,1.56,1.56,0,0,1,1.12-.45A1.61,1.61,0,0,1,5,11.93l3.3,3.3ZM8.55,14.38,7.38,13.22l5.87-5.86,1.16,1.16ZM19,9.78a1.56,1.56,0,0,1-1.11.45,1.65,1.65,0,0,1-1.12-.45L13.53,6.52,12,4.94a1.55,1.55,0,0,1-.47-1.12,1.65,1.65,0,0,1,.45-1.12,1.56,1.56,0,0,1,1.12-.45,1.65,1.65,0,0,1,1.11.45l3.44,3.45.57.56.83.84A1.57,1.57,0,0,1,19,9.78Zm-.24-3.59-.52-.5-3-3a1.08,1.08,0,0,1,0-1.57A1.12,1.12,0,0,1,16,.76a1.07,1.07,0,0,1,.78.33l.69.69L20,4.29,20.7,5a1.14,1.14,0,0,1,0,1.57.83.83,0,0,1-.57.19A2.07,2.07,0,0,1,18.77,6.19Z"/></g></g></svg>