<svg xmlns="http://www.w3.org/2000/svg" viewBox="0 0 27.52 20.66"><title>Asset 1</title><g id="Layer_2" data-name="Layer 2"><g id="Capa_1" data-name="Capa 1"><path d="M27,9.82H24.89a13.83,13.83,0,0,0,.44-1.68c.53-2.63.18-4.78-1-6.23A5.52,5.52,0,0,0,19.89,0a8.61,8.61,0,0,0-6.43,3A8.61,8.61,0,0,0,7,0a5.58,5.58,0,0,0-4.46,1.9C1.38,3.37,1,5.51,1.56,8.14A16.61,16.61,0,0,0,2,9.85H.49a.49.49,0,1,0,0,1h1.9c3,7.3,10.84,9.8,10.93,9.82a.45.45,0,0,0,.28,0c.09,0,8-2.52,10.94-9.85H27a.49.49,0,0,0,.49-.49A.48.48,0,0,0,27,9.82ZM13.46,19.66h0c-1-.35-7.34-2.75-10-8.84h5.3l1.61,4a.5.5,0,0,0,.45.3h0a.49.49,0,0,0,.44-.37l1.65-6.77,1.37,4.58a.49.49,0,0,0,.45.35.48.48,0,0,0,.48-.33l1.38-3.8,1.46,1.86a.47.47,0,0,0,.38.19h5C20.82,16.89,14.48,19.31,13.46,19.66ZM24.38,8a13.27,13.27,0,0,1-.52,1.87H18.69L16.83,7.46a.49.49,0,0,0-.69-.09.5.5,0,0,0-.16.22l-1.17,3.23L13.35,6a.48.48,0,0,0-.49-.35A.5.5,0,0,0,12.4,6l-1.71,7L9.52,10.15a.51.51,0,0,0-.46-.3h-6A13.67,13.67,0,0,1,2.54,8h0c-.49-2.33-.19-4.21.81-5.42A4.6,4.6,0,0,1,7,1a7.48,7.48,0,0,1,6,3.06.49.49,0,0,0,.68.14A.44.44,0,0,0,13.86,4a7.5,7.5,0,0,1,6-3.06,4.62,4.62,0,0,1,3.68,1.55C24.54,3.74,24.84,5.62,24.38,8Z"/></g></g></svg>