<svg xmlns="http://www.w3.org/2000/svg" viewBox="0 0 25.06 21.75"><title>park</title><g id="Layer_2" data-name="Layer 2"><g id="Capa_1" data-name="Capa 1"><path d="M23.75,18.2a4.26,4.26,0,0,0-3.12-1.31,4.34,4.34,0,0,0-3.14,1.31,4.79,4.79,0,0,0-.46.55V12.22a3.76,3.76,0,0,0,2.18-1,3.69,3.69,0,0,0,1.1-2.63V3.72a3.72,3.72,0,0,0-7.44,0V8.55A3.69,3.69,0,0,0,14,11.18a3.61,3.61,0,0,0,2.18,1v6.53a4.79,4.79,0,0,0-.46-.55,4.5,4.5,0,0,0-3.15-1.31A4.34,4.34,0,0,0,9.4,18.2a4.79,4.79,0,0,0-.46.55V15a3.69,3.69,0,0,0,3.28-3.66V6.53A3.71,3.71,0,0,0,5.88,3.91a3.67,3.67,0,0,0-1.1,2.62v4.84A3.67,3.67,0,0,0,5.88,14a3.53,3.53,0,0,0,2.18,1v3.72a4.79,4.79,0,0,0-.46-.55,4.48,4.48,0,0,0-3.15-1.31A4.34,4.34,0,0,0,1.31,18.2,4.46,4.46,0,0,0,0,21.34a.4.4,0,0,0,.41.41H24.65a.4.4,0,0,0,.41-.41A4.34,4.34,0,0,0,23.75,18.2ZM4.56,20.91H1a3.68,3.68,0,0,1,1-2.13,3.6,3.6,0,0,1,6.12,2.13Zm4-12.36A.41.41,0,0,0,8.17,9v3.26l-.3-.3a.42.42,0,0,0-.6,0,.43.43,0,0,0,0,.6l.9.9v.79a3.26,3.26,0,0,1-1.61-.82,2.85,2.85,0,0,1-.85-2V6.53a2.87,2.87,0,0,1,5.74,0v4.84a2.85,2.85,0,0,1-.85,2A2.68,2.68,0,0,1,9,14.18V11.75l.9-.9a.42.42,0,0,0-.6-.6l-.3.3V9A.41.41,0,0,0,8.58,8.55Zm4,12.36H9a3.62,3.62,0,0,1,1-2.13,3.55,3.55,0,0,1,5.08,0,3.62,3.62,0,0,1,1,2.13Zm4-15.17a.42.42,0,0,0-.41.41v3l-.3-.31a.43.43,0,0,0-.61.61l.91.9v1.06a3.37,3.37,0,0,1-1.62-.84,2.85,2.85,0,0,1-.84-2V3.72a2.85,2.85,0,0,1,.84-2,2.86,2.86,0,0,1,4.05,0,2.86,2.86,0,0,1,.85,2V8.55a2.86,2.86,0,0,1-.85,2,2.77,2.77,0,0,1-1.61.79V8.66l.9-.9a.42.42,0,1,0-.6-.6l-.3.3V6.15A.4.4,0,0,0,16.62,5.74Zm4,15.17H17.08a3.68,3.68,0,0,1,1-2.13,3.61,3.61,0,0,1,6.12,2.13Z"/></g></g></svg>