<?xml version="1.0" encoding="utf-8"?>
<!-- Generator: Adobe Illustrator 21.1.0, SVG Export Plug-In . SVG Version: 6.00 Build 0)  -->
<svg version="1.1" xmlns="http://www.w3.org/2000/svg" xmlns:xlink="http://www.w3.org/1999/xlink" x="0px" y="0px"
	 viewBox="0 0 289.1 112.1" style="enable-background:new 0 0 289.1 112.1;" xml:space="preserve">
<style type="text/css">
	.st0,.st1{fill:#fff;}
	.st2{fill:none;stroke:#fff;stroke-width:3.5;stroke-miterlimit:10;}
</style>
<g>
	<path class="st0" d="M33.2,64.1h-8.5V23.3h14.8c9.1,0,15.7,3.5,15.7,12.9c-0.1,9.4-6.6,13.4-15.7,13.4h-6.3V64.1z M37.3,42.5
		c6.6,0,9.4-1.3,9.4-6.3s-3.4-5.8-9.4-5.8h-4.1v12.2L37.3,42.5L37.3,42.5z"/>
	<path class="st0" d="M76.2,64.1h-8.5V23.3h14.8c9.1,0,16.3,3.8,16.3,13.2c0,5.9-3.3,10-7.4,12l9.9,15.6H91l-7.8-13.9
		c-0.4,0-0.2,0-0.6,0h-6.3L76.2,64.1L76.2,64.1z M80.3,43.1c6.6,0,10-1.6,10-6.7c0-5-4-6.2-10-6.2h-4.1V43L80.3,43.1L80.3,43.1z"/>
	<path class="st0" d="M136.9,57h-16.8l-3.3,7.1h-8.6L128.4,22h0.4l20.1,42.1h-8.6L136.9,57z M122.8,50.6h11.6l-5.8-12.7L122.8,50.6z
		"/>
	<path class="st0" d="M174.4,47.7v-6.6h20.3V45c0,12-6.3,20-18.7,20s-20.8-7.8-20.8-21s8.4-21.7,20.8-21.7c7.4,0,12.9,2.2,16.8,7.5
		l-6.3,5.3c-2.6-3.8-5.7-5.5-10.5-5.5c-6.3,0-12.1,4.1-12.1,14c0,10.5,5.8,14,12.1,14c6.8,0,10.2-3.6,10.2-9.9L174.4,47.7
		L174.4,47.7z"/>
	<path class="st0" d="M232.7,57h-16.8l-3.3,7.1H204L224.2,22h0.4l20.1,42.1h-8.6L232.7,57z M218.5,50.6H230l-5.8-12.7L218.5,50.6z"
		/>
</g>
<g>
	<path class="st1" d="M263.6,81.6c10.8-12.1,25.3-29.8,25.3-43.9c0-15.7-14.5-16.5-17.4-16.5c-9.5,0-15.4,4.7-17.6,14.1l4.6,1.2
		c2.3-8.9,8.2-10.8,13-10.8c5.8,0,12,3.3,12,12.5c0,13.6-12.2,27.9-24,41.7c-2.5,3-5,5.9-7.3,8.7h36.9v-4.5h-27.8L263.6,81.6z"/>
</g>
<polyline class="st2" points="272.3,95.1 272.3,110.4 1.8,110.4 1.8,1.8 272.3,1.8 272.3,16.8 "/>
<g>
	<path class="st0" d="M30.7,76.8h2v5.5l4.5-5.5h2.5l-5,5.5v0.2l5.2,6.1h-2.6l-4.6-6v6h-2v-6l-4.6,6h-2.6l5.2-6.1v-0.2l-5-5.5h2.4
		l4.5,5.5L30.7,76.8L30.7,76.8z"/>
	<path class="st0" d="M55.3,76.2h0.2v12.4h-2v-8.2l-8,8.7h-0.2V76.8h2v8.2L55.3,76.2z"/>
	<path class="st0" d="M65.1,78.4c0,1.7,0.1,5.5-0.8,8c-0.7,1.8-1.9,2.7-3.9,2.4v-1.7c1.7,0.2,2.2-1.1,2.5-2.8
		c0.4-1.9,0.3-7.4,0.3-7.6h8.3v11.9h-2V78.4H65.1z"/>
	<path class="st0" d="M83.2,76.4c3.6,0,6,2.6,6,6.3c0,3.7-2.3,6.3-6,6.3c-3.6,0-6-2.6-6-6.3C77.3,78.9,79.6,76.4,83.2,76.4z
		 M83.2,87.2c2.5,0,4-2.1,4-4.5c0-2.5-1.5-4.6-4-4.6s-4,2.1-4,4.6C79.2,85.1,80.7,87.2,83.2,87.2z"/>
	<path class="st0" d="M104.9,76.2h0.2v12.4h-2v-8.2l-8,8.7h-0.2V76.8h2v8.2L104.9,76.2z M103.5,71.8c0,2.5-1.4,3.6-3.5,3.6
		s-3.4-1.1-3.4-3.6h1.7c0,1.3,0.4,2.2,1.7,2.2c1.3,0,1.8-0.9,1.8-2.2H103.5z"/>
	<path class="st0" d="M121.8,82.3l5.1-5.5h2.5l-5.4,5.6v0.2l5.8,6.1h-2.6l-5.4-6v6h-2V76.8h2L121.8,82.3L121.8,82.3z"/>
	<path class="st0" d="M139.3,76.4c3.6,0,6,2.6,6,6.3c0,3.7-2.3,6.3-6,6.3c-3.6,0-6-2.6-6-6.3C133.3,78.9,135.7,76.4,139.3,76.4z
		 M139.3,87.2c2.5,0,4-2.1,4-4.5c0-2.5-1.5-4.6-4-4.6s-4,2.1-4,4.6C135.3,85.1,136.8,87.2,139.3,87.2z"/>
	<path class="st0" d="M161.3,80.9l-4.1,8.1h-0.1l-4-8.1l-1.3,7.6h-1.9l2.3-12.3h0.2l4.9,9.4l4.9-9.4h0.2l2.3,12.3h-1.9L161.3,80.9z"
		/>
	<path class="st0" d="M172.1,88.6h-2V76.8h10v11.8h-2V78.4h-6V88.6z"/>
	<path class="st0" d="M189.7,78.4c0,1.7,0.1,5.5-0.8,8c-0.7,1.8-1.9,2.7-3.9,2.4v-1.7c1.7,0.2,2.2-1.1,2.5-2.8
		c0.4-1.9,0.3-7.4,0.3-7.6h8.3v11.9h-2V78.4H189.7z"/>
	<path class="st0" d="M207.5,76.4c3.7,0,5.6,2.4,5.6,6.2v0.6h-9.3c0.1,2.4,1.6,4,4,4c1.5,0,2.7-0.5,3.8-1.7l1.2,1.1
		c-1.2,1.6-3,2.3-5,2.3c-3.9,0-6-2.6-6-6.3C201.9,78.9,204.4,76.4,207.5,76.4z M204,81.7h7.2c-0.2-2.2-1.3-3.6-3.6-3.6
		C205.7,78.1,204.3,79.5,204,81.7z"/>
	<path class="st0" d="M220.8,82.3l5.1-5.5h2.5l-5.4,5.6v0.2l5.8,6.1h-2.6l-5.4-6v6h-2V76.8h2L220.8,82.3L220.8,82.3z"/>
	<path class="st0" d="M238.4,87.2c1.6,0,2.8-0.6,3.5-1.6l1.3,1.2c-1,1.4-2.7,2.2-4.8,2.2c-3.6,0-6-2.5-6-6.3c0-3.7,2.4-6.3,6-6.3
		c2.1,0,3.6,0.8,4.7,2.2l-1.3,1.1c-0.7-1-1.9-1.6-3.4-1.6c-2.5,0-4,2.1-4,4.6C234.3,85.1,235.9,87.2,238.4,87.2z"/>
</g>
</svg>
