<?xml version="1.0" encoding="utf-8"?>
<!-- Generator: Adobe Illustrator 22.0.1, SVG Export Plug-In . SVG Version: 6.00 Build 0)  -->
<svg version="1.1" id="Слой_1" xmlns="http://www.w3.org/2000/svg" xmlns:xlink="http://www.w3.org/1999/xlink" x="0px" y="0px"
	 viewBox="0 0 568.6 262.8" style="enable-background:new 0 0 568.6 262.8;" xml:space="preserve">
<style type="text/css">
	.st0{fill:#1D2C35;}
	.st1{fill:#FFFFFF;}
</style>
<path class="st0" d="M552.1,1H17.5c-9.4,0-17,7.6-17,17v110.9c0,9.4,7.6,17,17,17h0c95.6,0,187.3,38,254.9,105.6l12.4,12.4
	l12.4-12.4c67.6-67.6,159.3-105.6,254.9-105.6h0c9.4,0,17-7.6,17-17V18C569.1,8.6,561.5,1,552.1,1z M212.4,153.9h144.8l-5.4,4.1
	c-34.1,25.6-57.8,62.6-66.7,104.3l-0.3,1.6l0,0c-8.5-41.9-32-79.2-66-105.1L212.4,153.9z"/>
<g>
	<g>
		<path class="st1" d="M62,111.2V25.9c12.2-0.1,24.2,0,36.4,0c19.9,0,30.3,15,30.3,31.1c0,15.8-10.8,30.1-30.3,30.1H80.3v24.1H62z
			 M98.5,71.5c7.8,0,12.9-6.8,12.9-15c0-7.9-4.9-14.6-12.9-14.6c-6.2-0.1-12.3,0-18.5,0v29.6H98.5z"/>
		<path class="st1" d="M222.1,108.6v2.6h-19.5L185.1,83h-15.2v28.1h-18.3V25.9c12.2,0,24.2-0.1,36.4,0c19.5,0,30.1,14.1,30.1,29.2
			c0,10.8-5.5,20.3-15.2,25.1L222.1,108.6z M187.9,68.1c7.7,0,12.7-6,12.5-13.3c0-7.2-4.7-12.9-12.5-12.9h-18.3v26.2H187.9z"/>
		<path class="st1" d="M260.3,97.2l-6.6,14.1h-19v-2.4L274,25.3h8.4l39,83.5v2.4h-18.9l-6.7-14.1H260.3z M266.3,81.8h23.6
			l-11.8-28.1L266.3,81.8z"/>
		<path class="st1" d="M379.1,24.9c16.9,0,33.9,8.2,38.7,28h-17.9c-4.3-8.3-11.1-11.6-20.8-11.6c-16,0-25,12.1-25,27.3
			c0,16.2,9.7,27.2,25,27.2c11.7,0,20.2-3.5,23.9-16.3h-23.3V64.2h39.9c0.5,8.2,0.2,16.1-2.6,23.9c-6.5,17.2-21.7,24.4-38,24.4
			c-22.5,0-43.5-15.5-43.5-43.7C335.6,40.4,356.6,24.9,379.1,24.9z"/>
		<path class="st1" d="M457.1,97.2l-6.6,14.1h-19v-2.4l39.2-83.5h8.4l39,83.5v2.4h-18.9l-6.7-14.1H457.1z M463.1,81.8h23.6
			l-11.8-28.1L463.1,81.8z"/>
	</g>
</g>
</svg>
