<?xml version="1.0" encoding="utf-8"?>
<!-- Generator: Adobe Illustrator 22.0.1, SVG Export Plug-In . SVG Version: 6.00 Build 0)  -->
<svg version="1.1" id="Слой_1" xmlns="http://www.w3.org/2000/svg" xmlns:xlink="http://www.w3.org/1999/xlink" x="0px" y="0px"
	 viewBox="0 0 568.6 266.8" style="enable-background:new 0 0 568.6 266.8;" xml:space="preserve">
<style type="text/css">
	.st0{fill:#CCB26C;}
	.st1{fill:#FFFFFF;}
</style>
<path class="st0" d="M551.6,2H17C7.6,2,0,9.6,0,19v110.9c0,9.4,7.6,17,17,17h0c95.6,0,187.3,38,254.9,105.6l12.4,12.4l12.4-12.4
	c67.6-67.6,159.3-105.6,254.9-105.6h0c9.4,0,17-7.6,17-17V19C568.6,9.6,561,2,551.6,2z M211.9,154.9h144.8l-5.4,4.1
	c-34.1,25.6-57.8,62.6-66.7,104.3l-0.3,1.6l0,0c-8.5-41.9-32-79.2-66-105.1L211.9,154.9z"/>
<g>
	<g>
		<path class="st1" d="M518.1,39.9c-4.7,0-10.2,2.3-10.2,10.4h-15c0-16.1,9.6-25.4,25.7-25.4c23.2,0,32,23.5,15.7,45.1
			c-2.5,3.4-6.1,9.5-16.5,23h26.7v15.2h-52.6v-3.8l29.1-40.8c2.9-4.1,5.9-8.8,6.2-13.6C527.5,43.3,522.9,39.9,518.1,39.9z"/>
	</g>
</g>
<g>
	<g>
		<path class="st1" d="M24,108.2V26.1c11.7-0.1,23.3,0,35.1,0c19.1,0,29.2,14.4,29.2,29.9c0,15.2-10.4,29-29.2,29H41.6v23.2H24z
			 M59.1,69.9c7.5,0,12.4-6.6,12.4-14.4c0-7.6-4.7-14.1-12.4-14.1c-6-0.1-11.8,0-17.8,0v28.5H59.1z"/>
		<path class="st1" d="M178.1,105.7v2.5h-18.8l-16.9-27.1h-14.7v27.1h-17.6V26.1c11.7,0,23.3-0.1,35.1,0c18.8,0,29,13.6,29,28.1
			c0,10.4-5.3,19.6-14.7,24.2L178.1,105.7z M145.1,66.7c7.4,0,12.2-5.7,12.1-12.8c0-6.9-4.6-12.4-12.1-12.4h-17.6v25.2H145.1z"/>
		<path class="st1" d="M214.9,94.7l-6.3,13.6h-18.3v-2.3L228,25.5h8.1l37.5,80.4v2.3h-18.2L249,94.7H214.9z M220.6,79.9h22.7
			L232,52.8L220.6,79.9z"/>
		<path class="st1" d="M329.2,25.1c16.3,0,32.6,7.9,37.3,27h-17.2c-4.1-8-10.7-11.1-20.1-11.1c-15.4,0-24,11.6-24,26.3
			c0,15.6,9.4,26.1,24,26.1c11.3,0,19.5-3.4,23-15.7h-22.4V62.9h38.5c0.5,7.9,0.2,15.5-2.5,23c-6.2,16.5-20.9,23.5-36.6,23.5
			c-21.7,0-41.9-14.9-41.9-42.1C287.4,40,307.6,25.1,329.2,25.1z"/>
		<path class="st1" d="M404.4,94.7l-6.3,13.6h-18.3v-2.3l37.8-80.4h8.1l37.5,80.4v2.3h-18.2l-6.4-13.6H404.4z M410.1,79.9h22.7
			l-11.4-27.1L410.1,79.9z"/>
	</g>
</g>
</svg>
