<svg xmlns="http://www.w3.org/2000/svg" viewBox="0 0 459 459"><defs><style>.cls-1{fill:#f0c7c1;}</style></defs><title>phone</title><g id="Layer_2" data-name="Layer 2"><g id="Capa_1" data-name="Capa 1"><g id="phone-in-talk"><path class="cls-1" d="M433.5,318.75a288.79,288.79,0,0,1-91.8-15.3c-7.65-2.55-17.85,0-25.5,5.1l-56.1,56.1c-71.4-35.7-130-96.9-168.3-168.3l56.1-56.1c7.65-7.65,10.2-17.85,5.1-25.5-7.65-28-12.75-58.65-12.75-89.25,0-15.3-10.2-25.5-25.5-25.5H25.5C10.2,0,0,10.2,0,25.5,0,265.2,193.8,459,433.5,459c15.3,0,25.5-10.2,25.5-25.5V344.25C459,329,448.8,318.75,433.5,318.75ZM408,229.5h51C459,102,357,0,229.5,0V51C329,51,408,130.05,408,229.5Zm-102,0h51C357,158.1,300.9,102,229.5,102v51C272.85,153,306,186.15,306,229.5Z"/></g></g></g></svg>