<svg xmlns="http://www.w3.org/2000/svg" viewBox="0 0 510 484.5"><defs><style>.cls-1{fill:#f0c7c1;opacity:0.9;isolation:isolate;}</style></defs><title>worktime</title><g id="Layer_2" data-name="Layer 2"><g id="Capa_1" data-name="Capa 1"><g id="history"><path class="cls-1" d="M267.75,0C178.5,0,99.45,48.45,58.65,122.4L0,63.75V229.5H165.75l-71.4-71.4C127.5,94.35,191.25,51,267.75,51,372.3,51,459,137.7,459,242.25S372.3,433.5,267.75,433.5c-84.15,0-153-53.55-181-127.5H33.15c28.05,102,122.4,178.5,234.6,178.5C402.9,484.5,510,374.85,510,242.25S400.35,0,267.75,0ZM229.5,127.5V257.55L349.35,329l20.4-33.15-102-61.2V127.5Z"/></g></g></g></svg>